# 
# Generated by Sweet Home 3D - jue sep 19 23:51:01 COT 2024
# http://www.sweethome3d.com/
# 
mtllib puerta.mtl
g ground_1
usemtl ground_1
v 491.51392 0.0 173.5787
v 491.51392 0.0 183.2787
v 579.1139 0.0 183.2787
v 579.1139 0.0 173.5787
vn 0.0 1.0 0.0
vn 0.0 0.0 0.0
f 1//1 2//1 3//1
f 1//1 3//1 4//1
g screen_door_01_screen_door_01_PAINT_gloss_white_2
usemtl PAINT_gloss_white
v 536.4705 194.4238 174.2076
v 536.4705 15.787542 174.2076
v 534.14526 15.787542 174.2076
v 534.14526 194.4238 174.2076
v 536.4705 194.4238 175.36673
v 534.14526 194.4238 175.36673
v 534.14526 15.787542 175.36673
v 536.4705 15.787542 175.36673
v 541.45667 15.787542 174.2076
v 541.45667 194.4238 174.2076
v 543.7819 194.4238 174.2076
v 543.7819 15.787542 174.2076
v 543.7819 194.4238 175.36673
v 541.45667 194.4238 175.36673
v 541.45667 15.787542 175.36673
v 543.7819 15.787542 175.36673
v 526.8296 15.787542 174.2076
v 526.8296 194.4238 174.2076
v 529.1549 194.4238 174.2076
v 529.1549 15.787542 174.2076
v 529.1549 194.4238 175.36673
v 526.8296 194.4238 175.36673
v 526.8296 15.787542 175.36673
v 529.1549 15.787542 175.36673
v 572.71014 97.00041 175.37439
v 572.71014 94.11292 175.37439
v 497.9056 94.11292 175.37439
v 497.9056 97.00041 175.37439
v 572.7102 97.00041 177.12053
v 497.9056 97.00041 177.12053
v 497.90558 94.11292 177.12053
v 572.71014 94.112915 177.12053
v 497.9056 109.04872 175.37439
v 497.9056 111.93622 175.37439
v 572.71014 111.93622 175.37439
v 572.71014 109.04872 175.37439
v 572.7102 111.93622 177.12053
v 497.9056 111.93622 177.12053
v 497.90558 109.04872 177.12053
v 572.71014 109.04872 177.12053
v 491.51392 17.803362 173.5787
v 491.51392 192.34943 173.5787
v 499.169 192.34943 173.5787
v 499.169 17.803362 173.5787
v 499.169 200.0 176.21017
v 491.51392 200.0 176.21017
v 491.51392 192.34943 176.21017
v 499.169 192.34943 176.21017
v 491.51392 17.803362 176.21017
v 499.169 200.0 173.5787
v 491.51392 200.0 173.5787
v 499.169 17.803362 176.21017
v 491.51392 13.895627 176.21017
v 499.169 13.895627 176.21017
v 491.51392 13.895627 173.5787
v 499.169 13.895627 173.5787
v 491.51392 4.1177154 173.5787
v 499.169 4.1177154 173.5787
v 499.169 4.1177154 176.21017
v 491.51392 4.1177154 176.21017
v 491.51392 -0 173.5787
v 491.51392 -0 176.21017
v 499.169 -0 176.21017
v 499.169 -0 173.5787
v 571.45703 17.803362 173.5787
v 571.45703 192.34943 173.5787
v 579.1139 192.34943 173.5787
v 579.1139 17.803362 173.5787
v 579.1139 200.0 176.21017
v 571.45703 200.0 176.21017
v 571.45703 192.34943 176.21017
v 579.1139 192.34943 176.21017
v 579.1139 200.0 173.5787
v 571.45703 17.803362 176.21017
v 571.45703 200.0 173.5787
v 579.1139 17.803362 176.21017
v 571.45703 13.895627 176.21017
v 579.1139 13.895627 176.21017
v 579.1139 13.895627 173.5787
v 571.45703 13.895627 173.5787
v 571.45703 4.1177154 173.5787
v 579.1139 4.1177154 173.5787
v 579.1139 4.1177154 176.21017
v 571.45703 4.1177154 176.21017
v 579.1139 -0 176.21017
v 579.1139 -0 173.5787
v 571.45703 -0 176.21017
v 571.45703 -0 173.5787
v 499.169 13.895627 174.90399
v 571.45703 13.895627 174.90399
v 499.169 4.1177154 174.90399
v 571.45703 4.1177154 174.90399
vn 0.0 0.0 -1.0
vn 0.0 0.0000001 1.0
vn 1.0 0.0 0.0
vn -0.0 -0.99999994 -0.0
vn -1.0 0.0 0.0
vn -1.0 0.0000001 -0.0000114
vn 0.0 0.0000001 1.0
vn 0.0 0.0 1.0
vn 1.0 -0.0000185 -0.0000143
vn 1.0 0.0 0.0000161
vn -0.0000002 -0.99999994 -0.0000074
vn 0.0 -1.0 0.0
vn -1.0 0.0000044 -0.0000072
vn 0.0 0.99999994 0.0
vn 1.0 -0.0000185 -0.0000143
vn -1.0 0.0000044 -0.0000072
vn 1.0 -0.0000044 0.0000072
vn -1.0 0.0 -0.0000161
vn -1.0 0.0000185 0.0000143
vn 1.0 -0.0000044 0.0000072
vn 0.0000002 0.99999994 0.0000074
vn -1.0 0.0000185 0.0000143
vn -0.0 -0.0000001 -1.0
vn 1.0 -0.0000001 0.0000114
vn -0.0 -0.0000001 -1.0
f 5//3 6//3 7//3
f 5//3 7//3 8//3
f 9//4 10//4 11//4
f 9//4 11//4 12//4
f 5//5 9//5 12//5
f 5//5 12//5 6//5
f 6//6 12//6 11//6
f 6//6 11//6 7//6
f 7//7 11//7 10//7
f 7//8 10//8 8//8
f 9//1 5//1 8//1
f 9//1 8//1 10//1
f 13//3 14//3 15//3
f 13//3 15//3 16//3
f 17//9 18//9 19//9
f 17//9 19//9 20//9
f 15//5 17//5 20//5
f 15//5 20//5 16//5
f 16//6 20//6 19//6
f 16//6 19//6 13//6
f 13//7 19//7 18//7
f 13//7 18//7 14//7
f 14//1 18//1 17//1
f 14//1 17//1 15//1
f 21//3 22//3 23//3
f 21//3 23//3 24//3
f 25//9 26//9 27//9
f 25//9 27//9 28//9
f 23//5 25//5 28//5
f 23//5 28//5 24//5
f 24//6 28//6 27//6
f 24//6 27//6 21//6
f 21//7 27//7 26//7
f 21//7 26//7 22//7
f 22//1 26//1 25//1
f 22//1 25//1 23//1
f 29//3 30//3 31//3
f 29//3 31//3 32//3
f 33//10 34//10 35//10
f 33//10 35//10 36//10
f 29//11 33//11 36//11
f 29//12 36//12 30//12
f 30//13 36//13 35//13
f 30//14 35//14 31//14
f 31//15 35//15 34//15
f 31//15 34//15 32//15
f 33//1 29//1 32//1
f 33//16 32//16 34//16
f 37//3 38//3 39//3
f 37//3 39//3 40//3
f 41//10 42//10 43//10
f 41//10 43//10 44//10
f 39//17 41//17 44//17
f 39//12 44//12 40//12
f 40//6 44//6 43//6
f 40//14 43//14 37//14
f 37//18 43//18 42//18
f 37//18 42//18 38//18
f 38//16 42//16 41//16
f 38//1 41//1 39//1
f 29//3 32//3 37//3
f 29//3 37//3 40//3
f 45//3 46//3 47//3
f 45//3 47//3 48//3
f 49//10 50//10 51//10
f 49//10 51//10 52//10
f 45//7 53//7 51//7
f 45//7 51//7 46//7
f 49//1 54//1 55//1
f 49//1 55//1 50//1
f 51//7 50//7 55//7
f 51//7 55//7 46//7
f 52//5 56//5 48//5
f 52//5 48//5 47//5
f 51//10 53//10 56//10
f 51//10 56//10 52//10
f 54//3 47//3 46//3
f 54//3 46//3 55//3
f 56//10 53//10 57//10
f 56//10 57//10 58//10
f 57//7 53//7 45//7
f 57//7 45//7 59//7
f 59//3 45//3 48//3
f 59//3 48//3 60//3
f 60//10 59//10 61//10
f 60//10 61//10 62//10
f 57//3 58//3 63//3
f 57//3 63//3 64//3
f 57//7 59//7 61//7
f 57//7 61//7 64//7
f 64//7 61//7 65//7
f 64//7 65//7 66//7
f 64//3 63//3 67//3
f 64//3 67//3 66//3
f 62//10 61//10 65//10
f 62//10 65//10 68//10
f 69//3 70//3 71//3
f 69//3 71//3 72//3
f 73//10 74//10 75//10
f 73//10 75//10 76//10
f 77//5 73//5 76//5
f 77//5 76//5 71//5
f 69//7 78//7 75//7
f 69//7 75//7 70//7
f 79//1 74//1 73//1
f 79//1 73//1 77//1
f 76//5 80//5 72//5
f 76//5 72//5 71//5
f 75//10 78//10 80//10
f 75//10 80//10 76//10
f 70//3 79//3 77//3
f 70//3 77//3 71//3
f 80//10 78//10 81//10
f 80//10 81//10 82//10
f 72//5 80//5 82//5
f 72//5 82//5 83//5
f 84//3 69//3 72//3
f 84//3 72//3 83//3
f 83//10 84//10 85//10
f 83//10 85//10 86//10
f 81//3 82//3 87//3
f 81//3 87//3 88//3
f 83//5 82//5 87//5
f 83//5 87//5 86//5
f 86//5 87//5 89//5
f 86//5 89//5 90//5
f 88//3 87//3 89//3
f 88//3 89//3 91//3
f 86//10 85//10 92//10
f 86//10 92//10 90//10
f 62//10 68//10 92//10
f 62//10 92//10 85//10
f 68//1 67//1 91//1
f 68//1 91//1 92//1
f 67//3 63//3 88//3
f 67//3 88//3 91//3
f 48//1 56//1 78//1
f 48//1 78//1 69//1
f 56//10 58//10 81//10
f 56//10 81//10 78//10
f 60//3 48//3 69//3
f 60//3 69//3 84//3
f 52//14 47//14 70//14
f 52//14 70//14 75//14
f 47//3 54//3 79//3
f 47//3 79//3 70//3
f 49//10 52//10 75//10
f 49//10 75//10 74//10
f 54//1 49//1 74//1
f 54//1 74//1 79//1
f 60//10 62//10 85//10
f 60//10 85//10 84//10
f 81//6 58//6 93//6
f 81//6 93//6 94//6
f 88//6 63//6 95//6
f 88//6 95//6 96//6
f 81//5 88//5 96//5
f 81//5 96//5 94//5
f 63//7 58//7 93//7
f 63//7 93//7 95//7
f 95//3 93//3 94//3
f 95//3 94//3 96//3
f 66//14 65//14 68//14
f 66//14 68//14 67//14
f 90//14 89//14 91//14
f 90//14 91//14 92//14
f 90//1 92//1 91//1
f 90//1 91//1 89//1
f 66//1 67//1 68//1
f 66//1 68//1 65//1
f 95//10 96//10 94//10
f 95//10 94//10 93//10
f 63//5 95//5 93//5
f 63//5 93//5 58//5
f 81//7 94//7 96//7
f 81//7 96//7 88//7
f 88//16 96//16 95//16
f 88//16 95//16 63//16
f 81//16 94//16 93//16
f 81//16 93//16 58//16
f 60//3 84//3 85//3
f 60//3 85//3 62//3
f 54//14 79//14 74//14
f 54//14 74//14 49//14
f 49//3 74//3 75//3
f 49//3 75//3 52//3
f 47//10 70//10 79//10
f 47//10 79//10 54//10
f 52//1 75//1 70//1
f 52//1 70//1 47//1
f 60//10 84//10 69//10
f 60//10 69//10 48//10
f 56//3 78//3 81//3
f 56//3 81//3 58//3
f 48//14 69//14 78//14
f 48//14 78//14 56//14
f 67//10 91//10 88//10
f 67//10 88//10 63//10
f 68//14 92//14 91//14
f 68//14 91//14 67//14
f 62//3 85//3 92//3
f 62//3 92//3 68//3
f 86//3 90//3 92//3
f 86//3 92//3 85//3
f 88//10 91//10 89//10
f 88//10 89//10 87//10
f 86//7 90//7 89//7
f 86//7 89//7 87//7
f 83//7 86//7 87//7
f 83//7 87//7 82//7
f 81//10 88//10 87//10
f 81//10 87//10 82//10
f 83//3 86//3 85//3
f 83//3 85//3 84//3
f 84//10 83//10 72//10
f 84//10 72//10 69//10
f 72//7 83//7 82//7
f 72//7 82//7 80//7
f 80//3 82//3 81//3
f 80//3 81//3 78//3
f 70//10 71//10 77//10
f 70//10 77//10 79//10
f 75//3 76//3 80//3
f 75//3 80//3 78//3
f 76//7 71//7 72//7
f 76//7 72//7 80//7
f 79//14 77//14 73//14
f 79//14 73//14 74//14
f 69//5 70//5 75//5
f 69//5 75//5 78//5
f 77//7 71//7 76//7
f 77//7 76//7 73//7
f 73//3 76//3 75//3
f 73//3 75//3 74//3
f 69//10 72//10 71//10
f 69//10 71//10 70//10
f 62//3 68//3 65//3
f 62//3 65//3 61//3
f 64//10 66//10 67//10
f 64//10 67//10 63//10
f 64//5 66//5 65//5
f 64//5 65//5 61//5
f 57//5 64//5 61//5
f 57//5 61//5 59//5
f 57//10 64//10 63//10
f 57//10 63//10 58//10
f 60//3 62//3 61//3
f 60//3 61//3 59//3
f 59//10 60//10 48//10
f 59//10 48//10 45//10
f 57//5 59//5 45//5
f 57//5 45//5 53//5
f 56//3 58//3 57//3
f 56//3 57//3 53//3
f 54//10 55//10 46//10
f 54//10 46//10 47//10
f 51//3 52//3 56//3
f 51//3 56//3 53//3
f 52//7 47//7 48//7
f 52//7 48//7 56//7
f 51//5 46//5 55//5
f 51//5 55//5 50//5
f 49//14 50//14 55//14
f 49//14 55//14 54//14
f 45//5 46//5 51//5
f 45//5 51//5 53//5
f 49//3 52//3 51//3
f 49//3 51//3 50//3
f 45//10 48//10 47//10
f 45//10 47//10 46//10
f 29//10 40//10 37//10
f 29//10 37//10 32//10
f 38//14 39//14 41//14
f 38//6 41//6 42//6
f 37//19 38//19 42//19
f 37//19 42//19 43//19
f 40//1 37//1 43//1
f 40//16 43//16 44//16
f 39//20 40//20 44//20
f 39//21 44//21 41//21
f 41//3 44//3 43//3
f 41//3 43//3 42//3
f 37//10 40//10 39//10
f 37//10 39//10 38//10
f 33//6 34//6 32//6
f 33//14 32//14 29//14
f 31//22 32//22 34//22
f 31//22 34//22 35//22
f 30//1 31//1 35//1
f 30//23 35//23 36//23
f 29//20 30//20 36//20
f 29//24 36//24 33//24
f 33//3 36//3 35//3
f 33//3 35//3 34//3
f 29//10 32//10 31//10
f 29//10 31//10 30//10
f 22//14 23//14 25//14
f 22//14 25//14 26//14
f 21//5 22//5 26//5
f 21//5 26//5 27//5
f 24//16 21//16 27//16
f 24//16 27//16 28//16
f 23//7 24//7 28//7
f 23//7 28//7 25//7
f 25//25 28//25 27//25
f 25//25 27//25 26//25
f 21//10 24//10 23//10
f 21//10 23//10 22//10
f 14//14 15//14 17//14
f 14//14 17//14 18//14
f 13//5 14//5 18//5
f 13//5 18//5 19//5
f 16//16 13//16 19//16
f 16//16 19//16 20//16
f 15//7 16//7 20//7
f 15//7 20//7 17//7
f 17//25 20//25 19//25
f 17//25 19//25 18//25
f 13//10 16//10 15//10
f 13//10 15//10 14//10
f 9//14 10//14 8//14
f 9//14 8//14 5//14
f 7//26 8//26 10//26
f 7//5 10//5 11//5
f 6//16 7//16 11//16
f 6//16 11//16 12//16
f 5//7 6//7 12//7
f 5//7 12//7 9//7
f 9//27 12//27 11//27
f 9//27 11//27 10//27
f 5//10 8//10 7//10
f 5//10 7//10 6//10
g sweethome3d_window_pane_screen_door_01_SYNTH_screen_3
usemtl SYNTH_screen
v 574.4952 195.9094 174.15283
v 496.13266 195.90944 174.15283
v 496.13266 14.880844 174.15285
v 574.4952 14.880819 174.15285
vn 0 0.0000001 1.0
vn 0 0.0000001 1.0
vn -0 -0.0000001 -1.0
vn -0 -0.0000001 -1.0
f 97//28 98//28 99//28
f 97//29 99//29 100//29
f 97//30 100//30 99//30
f 97//31 99//31 98//31
g screen_door_01_screen_door_01_PAINT_gloss_black_4
usemtl PAINT_gloss_black
v 578.10486 116.68237 177.5046
v 577.65125 116.0676 178.15254
v 577.65125 112.517746 178.15254
v 578.10486 112.51776 177.5046
v 578.10486 96.88559 177.5046
v 577.65125 97.50037 178.15254
v 575.61633 97.500374 178.15254
v 575.1628 96.8856 177.5046
v 575.6164 112.51776 178.15254
v 575.1628 112.51776 177.5046
v 575.1628 116.68239 177.5046
v 575.6164 116.0676 178.15254
v 577.65125 112.517746 179.71692
v 575.6164 112.51776 179.71692
v 577.65125 116.0676 179.7169
v 575.6164 116.0676 179.7169
v 575.88477 115.78741 179.98663
v 577.3829 115.78741 179.98663
v 575.88477 112.79795 179.98663
v 577.3829 112.79795 179.98663
v 577.3829 112.79795 181.11047
v 575.88477 112.79795 181.11047
v 577.3829 115.78741 181.11047
v 575.88477 115.78741 181.11047
v 576.0693 115.582504 181.30214
v 577.19836 115.58249 181.30214
v 576.0693 113.00286 181.30214
v 577.19836 113.00286 181.30214
vn 0.8208523 -0.0000029 0.5711406
vn 0.8208435 0.0 0.57115316
vn -0.0000047 -0.7273231 0.6862952
vn -0.0000033 -0.7273204 0.6862981
vn -0.82085127 0.0000007 0.5711421
vn -0.8208435 0.0 0.57115316
vn 0.0000031 0.72732043 0.686298
vn 0.0 0.72731453 0.6863044
vn -0.0000066 -0.99999994 0.0
vn 1.0 -0.0000035 0.0
vn 0.0 0.6954986 0.7185275
vn -0.7109855 0.0000026 0.70320666
vn -0.711001 0.0 0.703191
vn 0.71098036 0.0000001 0.7032119
vn 0.71098 0.0 0.70321226
vn -0.0000046 -0.6954665 0.71855855
vn 0.0 -0.69548124 0.71854424
vn 0.0 0.6851325 0.72841847
vn 0.0000086 0.68510324 0.728446
vn -0.7224297 0.0 0.6914444
vn -0.7224297 0.0 0.69144434
vn 0.72245914 0.0 0.6914136
vn 0.0 -0.6851311 0.7284198
vn 0.0 -0.6851311 0.72841984
f 101//32 102//32 103//32
f 101//33 103//33 104//33
f 105//34 106//34 107//34
f 105//35 107//35 108//35
f 108//36 107//36 109//36
f 108//37 109//37 110//37
f 102//38 101//38 111//38
f 102//39 111//39 112//39
f 109//37 112//37 111//37
f 109//37 111//37 110//37
f 103//33 106//33 105//33
f 103//33 105//33 104//33
f 109//10 107//10 106//10
f 109//10 106//10 103//10
f 109//40 103//40 113//40
f 109//40 113//40 114//40
f 103//41 102//41 115//41
f 103//41 115//41 113//41
f 112//7 109//7 114//7
f 112//7 114//7 116//7
f 102//16 112//16 116//16
f 102//16 116//16 115//16
f 115//42 116//42 117//42
f 115//42 117//42 118//42
f 116//43 114//43 119//43
f 116//44 119//44 117//44
f 113//45 115//45 118//45
f 113//46 118//46 120//46
f 114//47 113//47 120//47
f 114//48 120//48 119//48
f 119//14 120//14 121//14
f 119//14 121//14 122//14
f 120//5 118//5 123//5
f 120//5 123//5 121//5
f 117//7 119//7 122//7
f 117//7 122//7 124//7
f 118//1 117//1 124//1
f 118//1 124//1 123//1
f 123//49 124//49 125//49
f 123//50 125//50 126//50
f 124//51 122//51 127//51
f 124//52 127//52 125//52
f 121//53 123//53 126//53
f 121//53 126//53 128//53
f 122//54 121//54 128//54
f 122//55 128//55 127//55
f 126//10 125//10 127//10
f 126//10 127//10 128//10
g screen_door_01_screen_door_01_PAINT_gloss_black_24_5
usemtl PAINT_gloss_black
v 575.6148 111.4393 180.31065
v 575.6148 111.79245 180.31065
v 575.6148 111.79245 178.15681
v 575.6148 111.4393 178.15681
v 575.89325 112.07314 180.31065
v 575.89325 112.07314 178.15681
v 577.65283 111.4393 180.31065
v 577.65283 111.439285 178.15681
v 577.65283 111.79245 178.15681
v 577.65283 111.79245 180.31065
v 577.3744 112.07314 178.15681
v 577.3744 112.07314 180.31065
v 575.89325 111.84716 181.44609
v 577.3744 111.84716 181.44609
v 577.65283 111.58783 181.33899
v 577.65283 111.26156 181.2042
v 575.6148 111.58783 181.33899
v 575.6148 111.26156 181.2042
v 575.6148 110.75446 181.96191
v 575.6148 111.004196 182.21094
v 575.89325 111.20266 182.40887
v 577.65283 111.004196 182.21094
v 577.65283 110.75446 181.9619
v 577.3744 111.20266 182.40887
v 575.89325 110.237785 183.0524
v 577.3744 110.237785 183.0524
v 577.65283 110.13036 182.7938
v 577.65283 109.995224 182.4684
v 575.6148 110.13036 182.7938
v 575.6148 109.995224 182.46841
v 575.6148 109.099396 182.6466
v 575.6148 109.099396 182.9988
v 575.89325 109.099396 183.27872
v 577.65283 109.099396 182.9988
v 577.65283 109.099396 182.6466
v 577.3744 109.099396 183.27872
v 577.3744 107.82517 183.27872
v 575.89325 107.82517 183.27872
v 575.89325 99.366 180.89609
v 577.3744 99.366 180.89609
v 577.65283 107.82517 182.9988
v 577.65283 99.47342 180.63748
v 577.65283 107.82517 182.6466
v 577.65283 99.60857 180.31209
v 575.6148 107.82517 182.9988
v 575.6148 99.47342 180.63748
v 575.6148 107.82517 182.6466
v 575.6148 99.60857 180.31209
v 575.6148 98.84878 179.8064
v 575.6148 98.59906 180.05544
v 575.89325 98.40058 180.25337
v 577.65283 98.59906 180.05544
v 577.65283 98.84878 179.8064
v 577.3744 98.40058 180.25337
v 575.89325 97.75529 179.29112
v 577.3744 97.75529 179.29112
v 577.65283 98.0146 179.184
v 577.65283 98.34088 179.04922
v 575.6148 98.0146 179.184
v 575.6148 98.34088 179.04922
v 575.6148 98.1622 178.15681
v 575.6148 97.80904 178.15681
v 575.89325 97.52834 178.15681
v 577.65283 97.80904 178.15681
v 577.65283 98.1622 178.15681
v 577.3744 97.52834 178.15681
vn -0.9244342 0.37950644 0.037368756
vn -0.92470276 0.38068992 0.0
vn -0.45816413 0.8830227 0.101766594
vn -0.3846759 0.9230517 0.0
vn 0.9247027 0.3806899 0.0
vn 0.805394 0.58988625 0.05809169
vn 0.5080106 0.8613508 0.0
vn 0.38402215 0.91890323 0.09024306
vn -0.4616658 0.8079776 0.36611027
vn 0.4616331 0.83108926 0.3101379
vn 0.8293182 0.50134414 0.24674964
vn -0.8292667 0.5295603 0.17855667
vn -0.891028 0.34206298 0.29843238
vn -0.46202743 0.60645694 0.64710176
vn 0.82958156 0.36861104 0.41942877
vn 0.4619714 0.649296 0.6041499
vn -0.46237457 0.3122076 0.8299013
vn 0.46234035 0.3683219 0.8065857
vn 0.82981986 0.17964993 0.5283227
vn -0.82976633 0.2479952 0.49998608
vn -0.8279433 0.07384976 0.55592805
vn -0.3848995 0.09108533 0.9184529
vn 0.86431724 0.049788848 0.50047654
vn 0.45914617 0.102708384 0.88240343
vn 0.38421488 -0.12751004 0.91439605
vn -0.46015197 -0.1435533 0.8761579
vn -0.46096572 -0.3942854 0.7950156
vn 0.45926943 -0.3507175 0.81613046
vn 0.8285477 -0.103152245 0.55033475
vn 0.82901114 -0.261432 0.49436206
vn -0.8636885 -0.070252195 0.49910602
vn -0.88977313 -0.1694952 0.42376313
vn -0.891099 -0.29926893 0.34114617
vn -0.46196243 -0.6487856 0.6047049
vn 0.8294896 -0.4205335 0.36755767
vn 0.46204868 -0.60589975 0.6476084
vn -0.46160918 -0.83080626 0.31093073
vn 0.46167645 -0.8076361 0.36684984
vn 0.8292459 -0.5294079 0.17910449
vn -0.8909075 -0.40731084 0.2009515
vn -0.8609825 -0.49885285 0.09927238
vn -0.38020077 -0.9071218 0.18049242
vn 0.92284787 -0.3777552 0.07518463
vn 0.5022548 -0.84809184 0.16876134
f 129//7 130//56 131//57
f 129//7 131//57 132//7
f 130//56 133//58 134//59
f 130//56 134//59 131//57
f 135//5 136//5 137//60
f 135//5 137//60 138//61
f 139//62 140//63 138//61
f 139//62 138//61 137//60
f 133//58 140//63 139//62
f 133//58 139//62 134//59
f 140//63 133//58 141//64
f 140//63 141//64 142//65
f 138//61 140//63 142//65
f 138//61 142//65 143//66
f 135//5 138//61 143//66
f 135//5 143//66 144//5
f 133//58 130//56 145//67
f 133//58 145//67 141//64
f 130//56 129//7 146//7
f 130//56 146//7 145//67
f 145//67 146//7 147//7
f 145//67 147//7 148//68
f 141//64 145//67 148//68
f 141//64 148//68 149//69
f 144//5 143//66 150//70
f 144//5 150//70 151//5
f 143//66 142//65 152//71
f 143//66 152//71 150//70
f 142//65 141//64 149//69
f 142//65 149//69 152//71
f 152//71 149//69 153//72
f 152//71 153//72 154//73
f 150//70 152//71 154//73
f 150//70 154//73 155//74
f 151//5 150//70 155//74
f 151//5 155//74 156//5
f 149//69 148//68 157//75
f 149//69 157//75 153//72
f 148//68 147//7 158//7
f 148//68 158//7 157//75
f 157//75 158//7 159//7
f 157//75 159//7 160//76
f 153//72 157//75 160//76
f 153//72 160//76 161//77
f 156//5 155//74 162//78
f 156//5 162//78 163//5
f 155//74 154//73 164//79
f 155//74 164//79 162//78
f 154//73 153//72 161//77
f 154//73 161//77 164//79
f 165//80 166//81 167//82
f 165//80 167//82 168//83
f 169//84 165//80 168//83
f 169//84 168//83 170//85
f 171//5 169//84 170//85
f 171//5 170//85 172//5
f 166//81 173//86 174//87
f 166//81 174//87 167//82
f 173//86 175//7 176//7
f 173//86 176//7 174//87
f 174//87 176//7 177//7
f 174//87 177//7 178//88
f 167//82 174//87 178//88
f 167//82 178//88 179//89
f 172//5 170//85 180//90
f 172//5 180//90 181//5
f 170//85 168//83 182//91
f 170//85 182//91 180//90
f 168//83 167//82 179//89
f 168//83 179//89 182//91
f 182//91 179//89 183//92
f 182//91 183//92 184//93
f 180//90 182//91 184//93
f 180//90 184//93 185//94
f 181//5 180//90 185//94
f 181//5 185//94 186//5
f 179//89 178//88 187//95
f 179//89 187//95 183//92
f 178//88 177//7 188//7
f 178//88 188//7 187//95
f 187//95 188//7 189//7
f 187//95 189//7 190//96
f 183//92 187//95 190//96
f 183//92 190//96 191//97
f 186//5 185//94 192//98
f 186//5 192//98 193//5
f 185//94 184//93 194//99
f 185//94 194//99 192//98
f 184//93 183//92 191//97
f 184//93 191//97 194//99
f 164//79 161//77 166//81
f 164//79 166//81 165//80
f 162//78 164//79 165//80
f 162//78 165//80 169//84
f 163//5 162//78 169//84
f 163//5 169//84 171//5
f 161//77 160//76 173//86
f 161//77 173//86 166//81
f 160//76 159//7 175//7
f 160//76 175//7 173//86
