# 
# Generated by Sweet Home 3D - jue sep 19 22:51:32 COT 2024
# http://www.sweethome3d.com/
# 
mtllib materials.mtl
g ground_1
usemtl ground_1
v 533.5139 0.0 452.39352
v 533.5139 0.0 496.39352
v 573.5139 0.0 496.39352
v 573.5139 0.0 452.39352
vn 0.0 1.0 0.0
vn 0.0 0.0 0.0
f 1//1 2//1 3//1
f 1//1 3//1 4//1
g 2
usemtl glasstransparent
v 568.0529 77.96747 491.04865
v 568.0529 8.15061 491.04865
v 538.639 8.15061 491.04865
v 538.639 77.96747 491.04865
v 568.0529 77.96747 492.0502
v 538.639 77.96747 492.0502
v 538.639 8.150611 492.0502
v 568.0529 8.15061 492.0502
vn -0.0 -0 -1.0
vn 0.0 0 1.0
vn 0 0 1.0
vn 0.99999994 0.0 0.0
vn -0 -1.0 -0.0
vn 0.0 -1.0 0.000001
vn -0.99999994 0.0 0.0
f 5//3 6//3 7//3
f 5//3 7//3 8//3
f 9//4 10//4 11//4
f 9//5 11//5 12//5
f 5//6 9//6 12//6
f 5//6 12//6 6//6
f 6//7 12//7 11//7
f 6//8 11//8 7//8
f 7//9 11//9 10//9
f 7//9 10//9 8//9
f 9//1 5//1 8//1
f 9//1 8//1 10//1
g 3
usemtl flltgrey
v 560.4894 6.926201 494.3904
v 560.4894 4.927802 494.3904
v 546.5021 4.927802 494.3904
v 546.5021 6.926201 494.3904
v 560.4894 6.926201 496.39352
v 546.5021 6.926201 496.39352
v 546.5021 4.927802 496.39352
v 560.4894 4.927802 496.39352
vn 0.0 0.0 -1.0
vn 0.0 0.0000005 1.0
vn -0.0 -1.0 -0.0
f 13//10 14//10 15//10
f 13//10 15//10 16//10
f 17//11 18//11 19//11
f 17//11 19//11 20//11
f 13//6 17//6 20//6
f 13//6 20//6 14//6
f 14//12 20//12 19//12
f 14//12 19//12 15//12
f 15//9 19//9 18//9
f 15//9 18//9 16//9
f 17//1 13//1 16//1
f 17//1 16//1 18//1
g 4
usemtl ltgrey
v 562.48755 6.9230013 491.38577
v 562.48755 4.9246025 491.38577
v 560.4894 4.9246025 491.38577
v 560.4894 6.9230013 491.38577
v 562.48755 6.9230022 496.39352
v 560.4894 6.9230022 496.39352
v 560.4894 4.924604 496.39352
v 562.48755 4.924604 496.39352
v 546.5021 6.9230022 496.39352
v 546.5021 6.9230013 491.38577
v 544.5039 6.9230013 491.38577
v 544.5039 6.9230022 496.39352
v 544.5039 4.9246025 491.38577
v 544.5039 4.924604 496.39352
v 546.5021 4.9246025 491.38577
v 546.5021 4.924604 496.39352
vn 0.0 0.0 1.0
vn 0.0 -1.0 0.0000002
vn 0.0 1.0 -0.0000002
f 21//10 22//10 23//10
f 21//10 23//10 24//10
f 25//13 26//13 27//13
f 25//13 27//13 28//13
f 21//6 25//6 28//6
f 21//6 28//6 22//6
f 22//14 28//14 27//14
f 22//14 27//14 23//14
f 23//9 27//9 26//9
f 23//9 26//9 24//9
f 25//15 21//15 24//15
f 25//15 24//15 26//15
f 29//15 30//15 31//15
f 29//15 31//15 32//15
f 33//9 34//9 32//9
f 33//9 32//9 31//9
f 35//14 36//14 34//14
f 35//14 34//14 33//14
f 30//6 29//6 36//6
f 30//6 36//6 35//6
f 29//13 32//13 34//13
f 29//13 34//13 36//13
f 30//10 35//10 33//10
f 30//10 33//10 31//10
g 5
usemtl grey
v 573.4776 8.995196 492.38733
v 573.4776 3.0 492.38733
v 573.4776 3.0 490.38422
v 573.4776 8.995196 490.38422
v 533.5139 8.995196 492.38733
v 533.5139 8.995196 490.38422
v 533.5139 3.0 490.38422
v 533.5139 3.0 492.38733
v 567.52203 7.497728 492.38733
v 567.52203 83.1 492.38733
v 567.52203 83.1 490.38422
v 567.52203 7.497727 490.38422
v 573.5139 83.1 490.38422
v 573.5139 7.497727 490.38422
v 573.5139 83.1 492.38733
v 573.5139 7.497728 492.38733
v 533.5201 83.1 492.38733
v 539.51196 83.1 492.38733
v 539.51196 83.1 490.38422
v 533.5201 83.1 490.38422
v 533.5201 7.497728 492.38733
v 533.5201 7.497727 490.38422
v 539.51196 7.497727 490.38422
v 539.51196 7.497728 492.38733
v 533.5139 83.09383 492.38733
v 573.4776 83.09383 492.38733
v 573.4776 83.09383 490.38422
v 533.5139 83.09383 490.38422
v 573.4776 77.10129 490.38422
v 533.5139 77.10129 490.38422
v 573.4776 77.10129 492.38733
v 533.5139 77.10129 492.38733
vn 0.0 0.0000002 1.0
vn -0.99999994 0 0.0
vn -0.99999994 0 -0
vn -0.0 -0.0000001 -1.0
vn 0.0 -0.0000001 -1.0
vn 0.99999994 -0 0
vn 0.99999994 -0 0.0
vn 0.0 0 1.0
vn 0.0 -1.0 0.0000005
vn -1.0 0.0 0.0
vn 1.0 0.0 0.0
f 37//6 38//6 39//6
f 37//6 39//6 40//6
f 41//9 42//9 43//9
f 41//9 43//9 44//9
f 37//16 41//16 44//16
f 37//16 44//16 38//16
f 38//12 44//12 43//12
f 38//12 43//12 39//12
f 39//10 43//10 42//10
f 39//10 42//10 40//10
f 41//1 37//1 40//1
f 41//1 40//1 42//1
f 45//17 46//17 47//17
f 45//18 47//18 48//18
f 49//19 50//19 48//19
f 49//20 48//20 47//20
f 51//21 52//21 50//21
f 51//22 50//22 49//22
f 46//23 45//23 52//23
f 46//23 52//23 51//23
f 45//24 48//24 50//24
f 45//24 50//24 52//24
f 46//1 51//1 49//1
f 46//1 49//1 47//1
f 53//1 54//1 55//1
f 53//1 55//1 56//1
f 57//24 58//24 59//24
f 57//24 59//24 60//24
f 53//23 57//23 60//23
f 53//23 60//23 54//23
f 54//6 60//6 59//6
f 54//6 59//6 55//6
f 55//20 59//20 58//20
f 55//20 58//20 56//20
f 57//9 53//9 56//9
f 57//9 56//9 58//9
f 61//1 62//1 63//1
f 61//1 63//1 64//1
f 65//10 66//10 64//10
f 65//10 64//10 63//10
f 67//12 68//12 66//12
f 67//12 66//12 65//12
f 62//13 61//13 68//13
f 62//13 68//13 67//13
f 61//25 64//25 66//25
f 61//25 66//25 68//25
f 62//26 67//26 65//26
f 62//26 65//26 63//26
g 6
usemtl white
v 573.4676 44.308372 452.43433
v 573.4676 42.309994 452.43433
v 533.5232 42.309963 452.4343
v 533.52325 44.308357 452.4343
v 573.4676 44.30836 491.44522
v 533.52313 44.308346 491.4452
v 533.52313 42.309986 491.4452
v 573.4675 42.309986 491.44522
v 573.4676 83.06448 491.38577
v 573.4676 3.0689309 491.38574
v 573.4676 3.0689287 452.39355
v 573.4676 83.064476 452.39355
v 571.47943 3.0689287 452.39352
v 571.47943 83.064476 452.39352
v 571.47943 3.0689309 491.38574
v 571.4794 83.06448 491.3857
v 535.5121 3.0689309 491.38574
v 533.5232 3.0689309 491.38574
v 533.5232 3.0689287 452.39352
v 535.5121 3.0689287 452.39355
v 535.5121 83.06448 491.38577
v 535.5121 83.064476 452.39355
v 533.5232 83.064476 452.39352
v 533.5232 83.06448 491.3857
v 573.4676 83.002205 491.97098
v 573.4676 83.06437 452.43433
v 533.52325 83.064354 452.4343
v 533.53314 83.002205 491.97098
v 533.5232 81.06597 452.4343
v 533.53314 81.003845 491.97098
v 573.4676 81.065994 452.43433
v 573.4675 81.00384 491.97098
v 573.4676 3.0789607 452.43463
v 573.4676 3.0789607 454.01157
v 533.5232 3.0789506 454.01157
v 533.5232 3.0789506 452.43463
v 573.4676 82.09894 452.43463
v 533.5232 82.09892 452.43463
v 533.52313 82.09892 454.01154
v 573.4675 82.09894 454.01157
v 573.4676 4.9321027 491.97098
v 573.4676 4.9942617 452.43433
v 533.52325 4.994246 452.4343
v 533.5232 4.932098 491.97098
v 533.5232 3.0679924 452.4343
v 533.52313 3.0058744 491.97098
v 573.4676 3.0680206 452.43433
v 573.4675 3.0058644 491.97098
v 573.4676 63.865585 491.44522
v 573.4676 63.865593 452.43433
v 533.52325 63.865574 452.4343
v 533.52313 63.865562 491.4452
v 533.5232 61.867184 452.4343
v 533.52313 61.867207 491.4452
v 573.4676 61.867214 452.43433
v 573.4675 61.867207 491.44522
v 573.4676 23.965322 452.43433
v 573.4676 21.96695 452.43433
v 533.5232 21.966919 452.4343
v 533.52325 23.965307 452.4343
v 573.4676 23.965315 491.44522
v 533.52313 23.9653 491.4452
v 533.52313 21.96694 491.4452
v 573.4675 21.96694 491.44522
vn 0.0000007 0 -1.0
vn 0.0000007 -0 -1.0
vn -0.0000007 0 1.0
vn -0.0000007 0 1.0
vn 0.99999994 -0.00002 0.0000011
vn 0.99999994 0.000001 0.0000021
vn 0 -0.99999994 -0.0000002
vn 0.0000008 -1.0 0.0000006
vn -0.99999994 0.0000076 -0.0000018
vn -0.99999994 0.0000095 -0.0000019
vn -0.0000004 1.0 0.0000003
vn -0.0000004 1.0 0.0000003
vn 0.99999994 0.0000002 0.0000003
vn 1.0 0.0000002 0.0000003
vn 0.0000076 -0.0000001 -1.0
vn 0.0000115 -0.0000002 -1.0
vn -0.99999994 -0.0000002 -0.0000007
vn -0.99999994 0.0000002 0.0000001
vn -0.0000216 -0.0000002 1.0
vn 0.0 0.0000003 1.0
vn 0 1.0 -0.0000002
vn 0 1.0 -0.0000002
vn 0.0 -1.0 0.0000001
vn -0 -0.99999994 0.0000001
vn -0 -1.0 0.0000001
vn 0 1.0 -0.0000002
vn 0 1.0 -0.0000002
vn -0.0000216 -0.0000002 1.0
vn -0.99999994 -0.0000002 -0.0000007
vn -0.99999994 0.0000002 0.0000001
vn 0.0000076 -0.0000001 -1.0
vn 0.0000115 -0.0000002 -1.0
vn 0.99999994 0.0000002 0.0000003
vn 1.0 0.0000002 0.0000003
vn -0.0000004 0.99999875 0.0015796211
vn 0.0 0.99999875 0.0015792326
vn -1.0 0.0000076 0.0002527
vn -1.0 0.0000095 0.0002526
vn -0.0000002 -0.99999875 -0.0015794276
vn 0.0000006 -0.99999875 -0.0015786516
vn 0.99999994 -0.00002 0.000001
vn 0.99999994 0.000001 0.0000021
vn 0.0000008 0 -1.0
vn 0.0000008 -0 -1.0
vn 0.0000003 -1.0 0.0
vn 0.0000003 -1.0 0
vn -0.0000004 0.99999994 -0
vn -0.0000004 0.99999994 -0
vn 0.99999994 0.0000002 0.0000261
vn 1.0 0.0000007 0.0
vn -0.0000006 -0 1.0
vn 0.0000001 0.0000003 1.0
vn -0.99999994 -0.0000005 -0.0000097
vn -0.99999994 -0.0000006 -0.0000121
vn 0.0000002 0.0000001 -1.0
vn 0.0000002 0.0000001 -1.0
vn -0.0000004 0.99999875 0.0015795941
vn -0.0000001 0.9999987 0.0015793141
vn -1.0 0.0000079 -0.0000012
vn -0.99999994 0.0000099 -0.0000013
vn -0.0000003 -0.9999987 -0.0015795176
vn 0.0000007 -0.99999875 -0.0015785515
vn 0.99999994 -0.0000208 0.000001
vn 0.99999994 0.000001 0.0000021
vn 0.0000008 0 -1.0
vn 0.0000008 -0 -1.0
vn -0.0000005 1.0 0.0000002
vn -0.0000006 1.0 0.0000003
vn 0 -0.99999994 -0.0000002
vn 0.99999994 -0.00002 0.0000011
vn 0.99999994 0.000001 0.0000021
vn -0.0000007 0 1.0
vn -0.0000007 0 1.0
vn 0.0000007 0 -1.0
vn 0.0000008 0 -1.0
vn 0.0000008 -0 -1.0
vn -0.0000007 0 1.0
vn -0.0000007 0 1.0
vn 0.99999994 -0.00002 0.0000011
vn 0.99999994 0.000001 0.0000021
vn 0 -1.0 -0.0000002
vn 0.0000008 -1.0 0.0000005
vn -0.99999994 0.0000076 -0.0000018
vn -0.99999994 0.0000095 -0.0000019
vn -0.0000004 1.0 0.0000002
vn -0.0000004 1.0 0.0000002
f 69//27 70//27 71//27
f 69//28 71//28 72//28
f 73//29 74//29 75//29
f 73//30 75//30 76//30
f 69//31 73//31 76//31
f 69//32 76//32 70//32
f 70//33 76//33 75//33
f 70//34 75//34 71//34
f 71//35 75//35 74//35
f 71//36 74//36 72//36
f 73//37 69//37 72//37
f 73//38 72//38 74//38
f 77//39 78//39 79//39
f 77//40 79//40 80//40
f 81//41 82//41 80//41
f 81//42 80//42 79//42
f 83//43 84//43 82//43
f 83//44 82//44 81//44
f 78//45 77//45 84//45
f 78//46 84//46 83//46
f 77//47 80//47 82//47
f 77//48 82//48 84//48
f 78//49 83//49 81//49
f 78//50 81//50 79//50
f 85//49 86//49 87//49
f 85//51 87//51 88//51
f 89//52 90//52 91//52
f 89//53 91//53 92//53
f 85//54 89//54 92//54
f 85//46 92//46 86//46
f 86//55 92//55 91//55
f 86//56 91//56 87//56
f 87//57 91//57 90//57
f 87//58 90//58 88//58
f 89//59 85//59 88//59
f 89//60 88//60 90//60
f 93//61 94//61 95//61
f 93//62 95//62 96//62
f 97//63 98//63 96//63
f 97//64 96//64 95//64
f 99//65 100//65 98//65
f 99//66 98//66 97//66
f 94//67 93//67 100//67
f 94//68 100//68 99//68
f 93//13 96//13 98//13
f 93//13 98//13 100//13
f 94//69 99//69 97//69
f 94//70 97//70 95//70
f 101//71 102//71 103//71
f 101//72 103//72 104//72
f 105//73 106//73 107//73
f 105//74 107//74 108//74
f 101//75 105//75 108//75
f 101//76 108//76 102//76
f 102//77 108//77 107//77
f 102//78 107//78 103//78
f 103//79 107//79 106//79
f 103//80 106//80 104//80
f 105//81 101//81 104//81
f 105//82 104//82 106//82
f 109//83 110//83 111//83
f 109//84 111//84 112//84
f 113//85 114//85 112//85
f 113//86 112//86 111//86
f 115//87 116//87 114//87
f 115//88 114//88 113//88
f 110//89 109//89 116//89
f 110//90 116//90 115//90
f 109//13 112//13 114//13
f 109//13 114//13 116//13
f 110//91 115//91 113//91
f 110//92 113//92 111//92
f 117//93 118//93 119//93
f 117//94 119//94 120//94
f 121//35 122//35 120//35
f 121//36 120//36 119//36
f 123//95 124//95 122//95
f 123//34 122//34 121//34
f 118//96 117//96 124//96
f 118//97 124//97 123//97
f 117//98 120//98 122//98
f 117//99 122//99 124//99
f 118//100 123//100 121//100
f 118//28 121//28 119//28
f 125//101 126//101 127//101
f 125//102 127//102 128//102
f 129//103 130//103 131//103
f 129//104 131//104 132//104
f 125//105 129//105 132//105
f 125//106 132//106 126//106
f 126//107 132//107 131//107
f 126//108 131//108 127//108
f 127//109 131//109 130//109
f 127//110 130//110 128//110
f 129//111 125//111 128//111
f 129//112 128//112 130//112
